<?xml version="1.0" encoding="UTF-8"?>
<svg id="Layer_1" data-name="Layer 1" xmlns="http://www.w3.org/2000/svg" version="1.1" viewBox="0 0 105 95">
  <defs>
    <style>
      .cls-1 {
        fill: #000;
      }

      .cls-1, .cls-2, .cls-3 {
        stroke-width: 0px;
      }

      .cls-2 {
        fill: #fefefe;
      }

      .cls-3 {
        fill: #fec700;
      }
    </style>
  </defs>
  <path class="cls-2" d="M105,3v89c-1.2.6-1.8,1.4-2,3H0C0,63.3,0,31.7,0,0c34.2,0,68.3,0,102.5,0,.6,1.2.7,2.8,2.5,3ZM99,77.5c4.2-2.9,2.9-11.5-2-13.8,0-.1,0-.2-.2-.2-5.4-5.2-12.4-5.3-19.3-6,.2-1.1-.3-2.3-.5-3.5-1.2-8.3-3.6-16.2-7.5-23.7-2.1-3.9-2.1-3.9,1-7.1.2-.2.4-.5.6-.8h0c4.2-2.9,2.9-11.5-2-13.8,0-.1,0-.2-.2-.2-1.1-1.4-2.5-2.3-4.1-3-5.2-2.1-10.5-3.1-16.2-2.6-6.6.6-12.7,2.2-17.2,7.6-.1,0-.2,0-.2.2-4,4.3-2.7,11.4,2.5,14,0,.1,0,.2.2.2.8.6.7,1,.2,2-5,7.9-8.1,16.5-9.4,25.8-.7,4.7-1,5.1-4,5.3-6.7.4-12.8,2.2-17.3,7.5-.1,0-.2,0-.2.2-4,4.3-2.7,11.4,2.5,14,0,.1,0,.2.2.2,1.1,1.3,2.5,1.9,4,2.6,5.5,2.4,11,3.4,17,2.5,2.6-.3,5.2-1.4,8.1.2,4.8,2.6,10.4,3,15.8,3.1,6.3,0,12.5-1.3,18.3-3.9.2,0,.4,0,.6,0,4.7.3,9.3,1.5,14.1.6,5.9-1.1,11.5-2.5,15.4-7.6h0Z"/>
  <path class="cls-1" d="M105,3c-1.8-.2-1.9-1.8-2.5-3h2.5v3Z"/>
  <path class="cls-1" d="M103,95c.2-1.6.8-2.4,2-3v3h-2Z"/>
  <path class="cls-3" d="M31,10.7c0-.1,0-.2.2-.2,1,.6,1.6-.1,2.2-.7,4.8-5.1,11.4-5.8,17.7-6.1,4.9-.2,9.9,1.1,14.5,3.3,1.1.5,1.5,2.3,3.2,1.5.1,0,.2,0,.2.2-.8,1,.3,1.3.7,1.7,3.3,3.5,3.7,6.2,1.7,10.5-.2.5-.8,1-.3,1.7,0,0,0,0,0,0-1.3-.6-1.8.7-2.5,1.2-1,.8-1.7,1.8-3,2.4-3.5,1.6-7,2.6-10.9,3-5.4.7-10.3-.2-15.3-2-1.9-.7-3.3-2.4-5.5-2.2-.1,0-.2,0-.2-.2.9-1.2-.5-1.4-.9-1.8-2.5-2.5-3.3-5.3-2.7-8.8.2-1.2,1.7-2,1.1-3.4Z"/>
  <path class="cls-3" d="M5.7,80c-.1,0-.2,0-.2-.2.9-1.2-.5-1.4-.9-1.8-2.5-2.5-3.3-5.3-2.7-8.8.2-1.2,1.7-2,1.1-3.4,0-.1,0-.2.2-.2,1.4.7,2.1-.5,2.7-1.3,1.1-1.3,2.5-2.1,4-2.7,5-2.1,10.2-3,15.8-2.6,4.3.3,8.2,1.6,12.1,3.2,1.1.5,1.6,2.1,3.2,1.5,0,0,0,0,0,0-.8,1,.3,1.3.7,1.7,3.3,3.5,3.7,6.2,1.7,10.5-.2.5-.8,1-.3,1.7h0c-1.3-.6-1.8.6-2.6,1.2-1,.8-1.7,1.8-3,2.4-3.5,1.6-7,2.6-10.9,3-5.4.7-10.3-.2-15.3-2-1.9-.7-3.3-2.4-5.5-2.2Z"/>
  <path class="cls-3" d="M96.8,63.5c.1,0,.2,0,.2.2-.8,1,.3,1.3.7,1.7,3.3,3.5,3.7,6.2,1.7,10.5-.2.5-.8,1-.3,1.7,0,0,0,0,0,0-1.3-.6-1.8.7-2.5,1.2-1,.8-1.7,1.8-3,2.4-3.5,1.6-7,2.6-10.9,3-5.4.7-10.3-.2-15.3-2-2-.7-3.4-2.6-5.7-2.4h0c.9-1.2-.5-1.4-.9-1.8-2.5-2.5-3.3-5.3-2.7-8.8.2-1.2,1.7-2,1.1-3.4h0c1.2.6,1.8-.3,2.4-.9,4.9-5.1,11.4-5.8,17.7-6.1,4.9-.2,9.9,1.1,14.5,3.3,1.1.5,1.5,2.3,3.2,1.5Z"/>
  <path class="cls-1" d="M96.8,63.5c-1.6.7-2.1-1-3.2-1.5-4.6-2.2-9.6-3.5-14.5-3.3-6.3.3-12.8,1-17.7,6.1-.6.6-1.3,1.5-2.4.9,4.5-5.4,10.8-7.1,17.4-7.8,0-6.2-3.9-22.4-10.3-30.9-10.3,4.9-20.7,4.7-30.8-.4-6.4,9.6-9.2,20.2-10.7,31.3,6,.6,11.9,1.3,16.4,5.8-1.6.5-2.1-1.1-3.2-1.5-3.9-1.6-7.8-2.9-12.1-3.2-5.5-.4-10.7.5-15.8,2.6-1.5.6-2.9,1.5-4,2.7-.7.7-1.3,1.9-2.7,1.3,4.5-5.3,10.6-7.1,17.3-7.5,3-.2,3.3-.6,4-5.3,1.3-9.3,4.4-17.9,9.4-25.8.6-.9.6-1.4-.2-2,2.2-.2,3.7,1.5,5.5,2.2,5,1.8,9.9,2.6,15.3,2,3.9-.5,7.4-1.5,10.9-3,1.3-.6,2-1.6,3-2.4.8-.6,1.2-1.8,2.5-1.2-.2.3-.4.6-.6.8-3.1,3.2-3.1,3.2-1,7.1,4,7.4,6.4,15.3,7.5,23.7.2,1.2.6,2.4.5,3.5,6.9.7,13.9.8,19.3,6Z"/>
  <path class="cls-1" d="M61.5,79.8c2.3-.2,3.8,1.7,5.7,2.4,5,1.8,9.9,2.6,15.3,2,3.9-.5,7.4-1.5,10.9-3,1.3-.6,2-1.6,3-2.4.8-.6,1.2-1.8,2.5-1.2-3.9,5.1-9.5,6.5-15.4,7.6-4.8.9-9.4-.3-14.1-.6,0-.1-.1-.3-.2-.4-.1.1-.3.3-.4.4-5.8,2.6-12,4-18.3,3.9-5.4,0-11-.4-15.8-3.1-2.9-1.6-5.5-.6-8.1-.2-6,.8-11.6-.1-17-2.5-1.5-.7-2.9-1.3-4-2.6,2.2-.2,3.7,1.5,5.5,2.2,5,1.8,9.9,2.6,15.3,2,3.9-.5,7.4-1.5,10.9-3,1.3-.6,2-1.6,3-2.4.8-.6,1.2-1.8,2.6-1.3-2.3,3.4-5.6,5.1-9.7,6.3,11.6,4.8,22.9,5.1,34.1-.2-2.2-1-4.5-1.7-6-3.7Z"/>
  <path class="cls-1" d="M68.8,8.5c-1.6.7-2.1-1-3.2-1.5-4.6-2.2-9.6-3.5-14.5-3.3-6.3.3-12.8,1-17.7,6.1-.6.6-1.2,1.4-2.2.7,4.5-5.3,10.6-7,17.2-7.6,5.6-.5,11,.5,16.2,2.6,1.6.6,3,1.6,4.1,3Z"/>
  <path class="cls-1" d="M3,65.7c.7,1.5-.8,2.2-1.1,3.4-.7,3.4.1,6.3,2.7,8.8.4.4,1.8.7.9,1.8-5.2-2.7-6.5-9.7-2.5-14Z"/>
  <path class="cls-1" d="M31,10.7c.7,1.5-.8,2.2-1.1,3.4-.7,3.4.1,6.3,2.7,8.8.4.4,1.8.7.9,1.8-5.2-2.7-6.5-9.7-2.5-14Z"/>
  <path class="cls-1" d="M71,22.5c-.5-.7,0-1.1.3-1.7,2-4.3,1.6-7-1.7-10.5-.4-.4-1.5-.7-.7-1.7,4.9,2.3,6.3,10.9,2,13.8Z"/>
  <path class="cls-1" d="M99,77.5c-.5-.7,0-1.1.3-1.7,2-4.3,1.6-7-1.7-10.5-.4-.4-1.5-.7-.7-1.7,4.9,2.3,6.3,10.9,2,13.8Z"/>
  <path class="cls-2" d="M68.9,84.5c.1-.1.3-.3.4-.4,0,.1.1.3.2.4-.2,0-.4,0-.6,0Z"/>
  <path class="cls-2" d="M61.5,79.8c1.5,2,3.7,2.7,6,3.7-11.2,5.3-22.5,5-34.1.2,4-1.2,7.4-2.9,9.7-6.3,0,0,0,0,0,0,4.2-2.9,2.9-11.5-2-13.8,0,0,0,0,0,0-4.5-4.5-10.3-5.3-16.4-5.8,1.5-11.1,4.2-21.7,10.7-31.3,10.2,5.1,20.5,5.3,30.8.4,6.4,8.5,10.3,24.7,10.3,30.9-6.6.7-12.8,2.4-17.4,7.8,0,0,0,0,0,0-4,4.3-2.7,11.4,2.5,14h0Z"/>
  <path class="cls-1" d="M41,63.7c4.9,2.3,6.2,10.9,2,13.8-.5-.7,0-1.1.3-1.7,2-4.3,1.6-7-1.7-10.5-.4-.4-1.5-.7-.7-1.7Z"/>
  <path class="cls-1" d="M61.5,79.8c-5.2-2.7-6.5-9.7-2.5-14,.7,1.5-.8,2.2-1.1,3.4-.7,3.4.1,6.3,2.7,8.8.4.4,1.8.7.9,1.8Z"/>
</svg>