<?xml version="1.0" encoding="UTF-8" standalone="no"?>
<svg
   xmlns:dc="http://purl.org/dc/elements/1.1/"
   xmlns:cc="http://creativecommons.org/ns#"
   xmlns:rdf="http://www.w3.org/1999/02/22-rdf-syntax-ns#"
   xmlns:svg="http://www.w3.org/2000/svg"
   xmlns="http://www.w3.org/2000/svg"
   viewBox="0 0 349.94666 79.693336"
   height="79.693336"
   width="349.94666"
   xml:space="preserve"
   id="svg2"
   version="1.1"><metadata
     id="metadata8"><rdf:RDF><cc:Work
         rdf:about=""><dc:format>image/svg+xml</dc:format><dc:type
           rdf:resource="http://purl.org/dc/dcmitype/StillImage" /></cc:Work></rdf:RDF></metadata><defs
     id="defs6" /><g
     transform="matrix(1.3333333,0,0,-1.3333333,0,79.693333)"
     id="g10"><g
       transform="scale(0.1)"
       id="g12"><path
         id="path14"
         style="fill:#85888b;fill-opacity:1;fill-rule:nonzero;stroke:none"
         d="M 775.852,129.359 V 117.016 H 743.84 V 27.6016 H 729.602 V 117.016 H 697.59 v 12.343 h 78.262" /><path
         id="path16"
         style="fill:#85888b;fill-opacity:1;fill-rule:nonzero;stroke:none"
         d="m 830.633,65.7852 c 0,8.5937 -1.938,15.4296 -5.805,20.4687 -3.863,5.0508 -9.133,7.5586 -15.781,7.5586 -6.668,0 -11.934,-2.5078 -15.797,-7.5586 -3.863,-5.0391 -5.793,-11.875 -5.793,-20.4687 0,-8.6211 1.93,-15.4375 5.793,-20.4883 3.863,-5.0391 9.129,-7.5586 15.797,-7.5586 6.648,0 11.918,2.5195 15.781,7.5586 3.867,5.0508 5.805,11.8672 5.805,20.4883 z m 14.222,0 c 0,-6.0743 -0.859,-11.5625 -2.632,-16.4336 -1.75,-4.9024 -4.231,-9.1211 -7.422,-12.6485 -3.168,-3.5234 -6.973,-6.2304 -11.375,-8.1445 -4.406,-1.9023 -9.192,-2.8594 -14.379,-2.8594 -5.207,0 -9.992,0.9571 -14.395,2.8594 -4.406,1.9141 -8.211,4.6211 -11.379,8.1445 -3.187,3.5274 -5.652,7.7461 -7.421,12.6485 -1.758,4.8711 -2.649,10.3593 -2.649,16.4336 0,5.9765 0.891,11.4179 2.649,16.3593 1.769,4.9414 4.234,9.168 7.421,12.6953 3.168,3.5235 6.973,6.2502 11.379,8.1642 4.403,1.902 9.188,2.859 14.395,2.859 5.187,0 9.973,-0.957 14.379,-2.859 4.402,-1.914 8.207,-4.6407 11.375,-8.1642 3.191,-3.5273 5.672,-7.7539 7.422,-12.6953 1.773,-4.9414 2.632,-10.3828 2.632,-16.3593" /><path
         id="path18"
         style="fill:#85888b;fill-opacity:1;fill-rule:nonzero;stroke:none"
         d="m 908.738,91.8984 c -1.371,0.4024 -3.218,0.7735 -5.511,1.1133 -2.297,0.3321 -5.407,0.5078 -9.332,0.5078 -7.329,0 -12.993,-2.3906 -16.95,-7.1953 -3.972,-4.7969 -5.941,-11.164 -5.941,-19.0742 0,-4.4023 0.551,-8.1719 1.676,-11.2969 1.121,-3.1445 2.648,-5.7343 4.558,-7.7929 1.91,-2.0508 4.114,-3.5743 6.602,-4.543 2.496,-0.9844 5.07,-1.4727 7.715,-1.4727 3.617,0 6.941,0.5157 9.976,1.5313 3.035,1.0351 5.434,2.2383 7.207,3.6055 z m 0.137,-56.6601 c -1.168,-0.7813 -3.449,-1.7852 -6.816,-3.0156 -3.391,-1.211 -7.329,-1.8282 -11.829,-1.8282 -4.601,0 -8.929,0.7344 -12.992,2.1993 -4.066,1.4843 -7.621,3.7382 -10.652,6.8359 -3.039,3.0859 -5.422,6.9336 -7.195,11.5117 -1.75,4.6094 -2.645,10.0899 -2.645,16.4649 0,5.5585 0.828,10.664 2.508,15.3242 1.66,4.6484 4.078,8.6601 7.266,12.0312 3.175,3.3867 7.066,6.0233 11.671,7.9293 4.606,1.914 9.793,2.872 15.567,2.872 6.355,0 11.918,-0.469 16.66,-1.387 4.754,-0.938 8.746,-1.789 11.977,-2.578 V 33.4922 c 0,-11.7695 -3.032,-20.2852 -9.118,-25.56642 -6.062,-5.27344 -15.273,-7.92187375 -27.601,-7.92187375 -4.789,0 -9.317,0.38281275 -13.582,1.16406375 -4.25,0.78906 -7.961,1.72656 -11.086,2.79297 l 2.496,11.89456 c 2.738,-1.0742 6.098,-2.0313 10.055,-2.8633 3.972,-0.8281 8.113,-1.25 12.406,-1.25 8.129,0 13.984,1.6211 17.555,4.8555 3.574,3.2304 5.355,8.3593 5.355,15.4101 v 3.2305" /><path
         id="path20"
         style="fill:#85888b;fill-opacity:1;fill-rule:nonzero;stroke:none"
         d="m 989.949,73.1211 c 0.106,6.1523 -1.453,11.2187 -4.621,15.1953 -3.187,3.9531 -7.562,5.9375 -13.148,5.9375 -3.125,0 -5.899,-0.6172 -8.301,-1.8281 -2.383,-1.2305 -4.418,-2.8203 -6.078,-4.7735 -1.68,-1.9531 -2.973,-4.2187 -3.899,-6.7578 -0.937,-2.539 -1.535,-5.1484 -1.828,-7.7734 z m -52.426,-7.4805 c 0,6.7383 0.985,12.6367 2.938,17.6836 1.957,5.0391 4.562,9.2188 7.793,12.5508 3.219,3.3281 6.945,5.82 11.16,7.48 4.207,1.661 8.52,2.508 12.918,2.508 10.273,0 18.152,-3.211 23.637,-9.6169 5.481,-6.4258 8.221,-16.1836 8.221,-29.2891 0,-0.5859 0,-1.3359 0,-2.2734 0,-0.9297 -0.05,-1.7891 -0.14,-2.5703 h -52.269 c 0.586,-7.9297 2.879,-13.9531 6.899,-18.0664 4,-4.1094 10.269,-6.1524 18.797,-6.1524 4.785,0 8.82,0.4102 12.117,1.2422 3.265,0.8281 5.742,1.6289 7.406,2.4219 l 1.91,-11.457 c -1.668,-0.8789 -4.578,-1.8164 -8.73,-2.793 -4.176,-0.9766 -8.883,-1.4531 -14.184,-1.4531 -6.648,0 -12.41,0.9961 -17.242,2.9961 -4.852,2.0039 -8.84,4.7773 -11.981,8.3007 -3.125,3.5274 -5.449,7.7149 -6.972,12.5508 -1.508,4.8438 -2.278,10.1563 -2.278,15.9375" /><path
         id="path22"
         style="fill:#85888b;fill-opacity:1;fill-rule:nonzero;stroke:none"
         d="m 1033.57,103.961 h 28.92 V 92.5039 h -28.92 V 57.2695 c 0,-3.8164 0.29,-6.9726 0.87,-9.4804 0.59,-2.4922 1.47,-4.4453 2.65,-5.8594 1.17,-1.418 2.63,-2.4219 4.41,-3.0195 1.75,-0.586 3.81,-0.8789 6.15,-0.8789 4.12,0 7.43,0.4609 9.92,1.3984 2.49,0.9258 4.23,1.5898 5.22,1.9922 l 2.63,-11.3203 c -1.37,-0.6836 -3.76,-1.543 -7.19,-2.5782 -3.43,-1.0234 -7.34,-1.5312 -11.75,-1.5312 -5.18,0 -9.47,0.6641 -12.84,1.9805 -3.38,1.3281 -6.09,3.3007 -8.16,5.9492 -2.05,2.6445 -3.5,5.8984 -4.33,9.7539 -0.83,3.8672 -1.24,8.3515 -1.24,13.4492 v 68.125 l 13.66,2.344 v -23.633" /><path
         id="path24"
         style="fill:#85888b;fill-opacity:1;fill-rule:nonzero;stroke:none"
         d="M 1079.76,27.6016 V 139.203 l 13.66,2.336 v -39.062 c 2.54,0.984 5.26,1.738 8.14,2.285 2.9,0.535 5.76,0.801 8.59,0.801 6.07,0 11.12,-0.852 15.14,-2.559 4,-1.731 7.2,-4.1134 9.6,-7.2071 2.41,-3.0781 4.1,-6.7774 5.07,-11.086 0.98,-4.3046 1.48,-9.0507 1.48,-14.2265 V 27.6016 h -13.66 V 67.543 c 0,4.6797 -0.32,8.7031 -0.95,12.0234 -0.65,3.3281 -1.7,6.0234 -3.16,8.0859 -1.48,2.0508 -3.43,3.543 -5.88,4.4805 -2.45,0.918 -5.48,1.3867 -9.1,1.3867 -1.46,0 -2.98,-0.0976 -4.56,-0.2929 -1.57,-0.2032 -3.06,-0.418 -4.48,-0.6641 -1.42,-0.2422 -2.69,-0.5078 -3.82,-0.8008 -1.12,-0.2929 -1.92,-0.5351 -2.41,-0.7422 V 27.6016 h -13.66" /><path
         id="path26"
         style="fill:#85888b;fill-opacity:1;fill-rule:nonzero;stroke:none"
         d="m 1206.67,73.1211 c 0.11,6.1523 -1.44,11.2187 -4.62,15.1953 -3.18,3.9531 -7.56,5.9375 -13.14,5.9375 -3.13,0 -5.9,-0.6172 -8.3,-1.8281 -2.39,-1.2305 -4.42,-2.8203 -6.08,-4.7735 -1.68,-1.9531 -2.97,-4.2187 -3.9,-6.7578 -0.94,-2.539 -1.54,-5.1484 -1.83,-7.7734 z m -52.42,-7.4805 c 0,6.7383 0.99,12.6367 2.94,17.6836 1.96,5.0391 4.56,9.2188 7.79,12.5508 3.22,3.3281 6.95,5.82 11.16,7.48 4.2,1.661 8.52,2.508 12.92,2.508 10.27,0 18.15,-3.211 23.63,-9.6169 5.49,-6.4258 8.23,-16.1836 8.23,-29.2891 0,-0.5859 0,-1.3359 0,-2.2734 0,-0.9297 -0.05,-1.7891 -0.14,-2.5703 h -52.27 c 0.58,-7.9297 2.87,-13.9531 6.89,-18.0664 4.01,-4.1094 10.27,-6.1524 18.8,-6.1524 4.79,0 8.82,0.4102 12.12,1.2422 3.26,0.8281 5.74,1.6289 7.41,2.4219 l 1.91,-11.457 c -1.67,-0.8789 -4.58,-1.8164 -8.73,-2.793 -4.18,-0.9766 -8.89,-1.4531 -14.18,-1.4531 -6.66,0 -12.42,0.9961 -17.25,2.9961 -4.85,2.0039 -8.84,4.7773 -11.98,8.3007 -3.12,3.5274 -5.45,7.7149 -6.97,12.5508 -1.51,4.8438 -2.28,10.1563 -2.28,15.9375" /><path
         id="path28"
         style="fill:#85888b;fill-opacity:1;fill-rule:nonzero;stroke:none"
         d="m 1265.71,105.563 c 1.18,0 2.52,-0.071 4.04,-0.215 1.51,-0.149 3.01,-0.344 4.47,-0.586 1.48,-0.254 2.81,-0.5 4.05,-0.742 1.21,-0.247 2.12,-0.461 2.71,-0.665 l -2.34,-11.8862 c -1.09,0.3828 -2.87,0.8515 -5.38,1.3867 -2.49,0.539 -5.69,0.8203 -9.61,0.8203 -2.55,0 -5.06,-0.2813 -7.55,-0.8203 -2.51,-0.5352 -4.14,-0.8867 -4.93,-1.0938 V 27.6016 h -13.66 v 73.1254 c 3.23,1.164 7.24,2.277 12.04,3.293 4.81,1.035 10.18,1.543 16.16,1.543" /><path
         id="path30"
         style="fill:#85888b;fill-opacity:1;fill-rule:nonzero;stroke:none"
         d="m 1370.07,65.7852 c 0,8.5937 -1.94,15.4296 -5.8,20.4687 -3.87,5.0508 -9.13,7.5586 -15.78,7.5586 -6.67,0 -11.93,-2.5078 -15.8,-7.5586 -3.86,-5.0391 -5.79,-11.875 -5.79,-20.4687 0,-8.6211 1.93,-15.4375 5.79,-20.4883 3.87,-5.0391 9.13,-7.5586 15.8,-7.5586 6.65,0 11.91,2.5195 15.78,7.5586 3.86,5.0508 5.8,11.8672 5.8,20.4883 z m 14.24,0 c 0,-6.0743 -0.87,-11.5625 -2.65,-16.4336 -1.75,-4.9024 -4.23,-9.1211 -7.42,-12.6485 -3.16,-3.5234 -6.97,-6.2304 -11.38,-8.1445 -4.4,-1.9023 -9.19,-2.8594 -14.37,-2.8594 -5.21,0 -10,0.9571 -14.4,2.8594 -4.41,1.9141 -8.21,4.6211 -11.38,8.1445 -3.19,3.5274 -5.65,7.7461 -7.42,12.6485 -1.75,4.8711 -2.65,10.3593 -2.65,16.4336 0,5.9765 0.9,11.4179 2.65,16.3593 1.77,4.9414 4.23,9.168 7.42,12.6953 3.17,3.5235 6.97,6.2502 11.38,8.1642 4.4,1.902 9.19,2.859 14.4,2.859 5.18,0 9.97,-0.957 14.37,-2.859 4.41,-1.914 8.22,-4.6407 11.38,-8.1642 3.19,-3.5273 5.67,-7.7539 7.42,-12.6953 1.78,-4.9414 2.65,-10.3828 2.65,-16.3593" /><path
         id="path32"
         style="fill:#85888b;fill-opacity:1;fill-rule:nonzero;stroke:none"
         d="m 1460.23,29.8086 c -3.15,-0.7891 -7.29,-1.6211 -12.42,-2.5 -5.13,-0.8672 -11.08,-1.3164 -17.84,-1.3164 -5.87,0 -10.81,0.8594 -14.81,2.5664 -4.02,1.7109 -7.25,4.1406 -9.7,7.2656 -2.45,3.1446 -4.2,6.836 -5.28,11.086 -1.08,4.2656 -1.61,8.9843 -1.61,14.1796 v 42.8712 h 13.65 V 64.0195 c 0,-9.2968 1.46,-15.9492 4.4,-19.9726 2.94,-4.0117 7.88,-6.0156 14.82,-6.0156 1.47,0 2.98,0.039 4.55,0.1484 1.57,0.0976 3.04,0.2226 4.4,0.3711 1.38,0.1445 2.62,0.293 3.74,0.4297 1.13,0.1562 1.95,0.332 2.43,0.5273 v 64.4532 h 13.67 V 29.8086" /><path
         id="path34"
         style="fill:#85888b;fill-opacity:1;fill-rule:nonzero;stroke:none"
         d="m 1509.84,105.563 c 1.19,0 2.53,-0.071 4.05,-0.215 1.51,-0.149 3,-0.344 4.46,-0.586 1.49,-0.254 2.82,-0.5 4.05,-0.742 1.22,-0.247 2.12,-0.461 2.71,-0.665 l -2.33,-11.8862 c -1.1,0.3828 -2.88,0.8515 -5.38,1.3867 -2.5,0.539 -5.7,0.8203 -9.6,0.8203 -2.56,0 -5.07,-0.2813 -7.56,-0.8203 -2.51,-0.5352 -4.15,-0.8867 -4.93,-1.0938 V 27.6016 h -13.66 v 73.1254 c 3.24,1.164 7.24,2.277 12.04,3.293 4.8,1.035 10.18,1.543 16.15,1.543" /><path
         id="path36"
         style="fill:#85888b;fill-opacity:1;fill-rule:nonzero;stroke:none"
         d="m 1579.74,27.6016 h -13.65 v 76.3594 h 13.65 z m -6.9,90.1484 c -2.45,0 -4.53,0.82 -6.25,2.422 -1.7,1.609 -2.57,3.797 -2.57,6.543 0,2.742 0.87,4.91 2.57,6.523 1.72,1.621 3.8,2.43 6.25,2.43 2.45,0 4.53,-0.809 6.23,-2.43 1.71,-1.613 2.58,-3.781 2.58,-6.523 0,-2.746 -0.87,-4.934 -2.58,-6.543 -1.7,-1.602 -3.78,-2.422 -6.23,-2.422" /><path
         id="path38"
         style="fill:#85888b;fill-opacity:1;fill-rule:nonzero;stroke:none"
         d="m 1601.14,101.742 c 3.13,0.781 7.27,1.613 12.42,2.512 5.14,0.879 11.08,1.309 17.84,1.309 4.9,0 9.01,-0.657 12.33,-1.973 3.33,-1.328 6.12,-3.262 8.38,-5.8127 0.68,0.5 1.76,1.1719 3.21,2.0704 1.49,0.8793 3.29,1.7183 5.44,2.5503 2.16,0.84 4.56,1.571 7.21,2.207 2.63,0.645 5.48,0.958 8.52,0.958 5.86,0 10.66,-0.852 14.37,-2.559 3.73,-1.731 6.64,-4.1407 8.75,-7.2852 2.11,-3.125 3.53,-6.8477 4.26,-11.1446 0.72,-4.3164 1.09,-9.0117 1.09,-14.0898 V 27.6016 h -13.65 V 67.543 c 0,4.5117 -0.21,8.3593 -0.66,11.5937 -0.43,3.2305 -1.28,5.918 -2.49,8.0664 -1.23,2.1563 -2.9,3.7383 -4.99,4.7735 -2.11,1.0351 -4.83,1.5429 -8.17,1.5429 -4.6,0 -8.39,-0.6054 -11.37,-1.8359 -2.99,-1.2109 -5.02,-2.3242 -6.1,-3.2891 0.78,-2.5586 1.37,-5.3437 1.77,-8.3789 0.39,-3.0273 0.59,-6.2226 0.59,-9.5312 V 27.6016 h -13.66 V 67.543 c 0,4.5117 -0.25,8.3593 -0.74,11.5937 -0.5,3.2305 -1.34,5.918 -2.57,8.0664 -1.22,2.1563 -2.88,3.7383 -4.99,4.7735 -2.11,1.0351 -4.77,1.5429 -8.01,1.5429 -1.36,0 -2.83,-0.0468 -4.4,-0.1367 -1.57,-0.1055 -3.07,-0.2148 -4.48,-0.3711 -1.42,-0.1562 -2.71,-0.3203 -3.88,-0.5078 -1.18,-0.2031 -1.97,-0.3594 -2.35,-0.4492 V 27.6016 h -13.67 v 74.1404" /><path
         id="path40"
         style="fill:#85888b;fill-opacity:1;fill-rule:nonzero;stroke:none"
         d="m 1775.5,65.6406 c 0,8.8946 -2.21,15.7422 -6.61,20.5469 -4.4,4.793 -10.28,7.1953 -17.63,7.1953 -4.11,0 -7.31,-0.1562 -9.61,-0.4492 -2.3,-0.293 -4.14,-0.6328 -5.51,-1.0352 V 43.7539 c 1.67,-1.3672 4.07,-2.6953 7.19,-3.9531 3.15,-1.2813 6.56,-1.9063 10.29,-1.9063 3.91,0 7.27,0.7032 10.05,2.1211 2.81,1.4141 5.07,3.3672 6.84,5.8672 1.76,2.5117 3.04,5.4297 3.82,8.8203 0.78,3.3672 1.17,7.0196 1.17,10.9375 z m 14.24,0 c 0,-5.7812 -0.75,-11.1054 -2.28,-16.0078 -1.51,-4.8906 -3.74,-9.1094 -6.68,-12.6367 -2.93,-3.5039 -6.53,-6.2695 -10.8,-8.2227 -4.25,-1.9531 -9.13,-2.9179 -14.61,-2.9179 -4.4,0 -8.28,0.5859 -11.67,1.7461 -3.37,1.1718 -5.89,2.2968 -7.56,3.3789 V 0.445313 h -13.65 V 101.598 c 3.23,0.789 7.27,1.64 12.11,2.578 4.86,0.918 10.46,1.387 16.82,1.387 5.87,0 11.16,-0.93 15.86,-2.793 4.69,-1.856 8.71,-4.4927 12.04,-7.9302 3.32,-3.4179 5.9,-7.5976 7.71,-12.5507 1.8,-4.9414 2.71,-10.4766 2.71,-16.6485" /><path
         id="path42"
         style="fill:#85888b;fill-opacity:1;fill-rule:nonzero;stroke:none"
         d="m 1832.75,37.4453 c 3.22,0 6.08,0.0781 8.59,0.2149 2.49,0.1562 4.57,0.4101 6.24,0.8125 v 22.7617 c -0.99,0.4883 -2.58,0.9101 -4.77,1.2422 -2.21,0.3398 -4.87,0.5273 -8.01,0.5273 -2.05,0 -4.24,-0.1562 -6.53,-0.4492 -2.31,-0.293 -4.4,-0.9102 -6.31,-1.8281 -1.91,-0.9453 -3.51,-2.2071 -4.78,-3.8164 -1.27,-1.6211 -1.9,-3.7422 -1.9,-6.3985 0,-4.8906 1.55,-8.289 4.69,-10.2031 3.13,-1.9063 7.4,-2.8633 12.78,-2.8633 z m -1.19,68.4177 c 5.48,0 10.12,-0.722 13.89,-2.136 3.76,-1.418 6.79,-3.418 9.1,-6.0161 2.3,-2.5898 3.94,-5.6836 4.92,-9.2578 0.98,-3.5742 1.47,-7.5117 1.47,-11.8086 V 28.9297 c -1.17,-0.2031 -2.81,-0.457 -4.92,-0.8203 -2.1,-0.3321 -4.48,-0.6524 -7.12,-0.9453 -2.65,-0.293 -5.51,-0.5586 -8.59,-0.8008 -3.08,-0.2539 -6.15,-0.3711 -9.17,-0.3711 -4.32,0 -8.29,0.4492 -11.91,1.3164 -3.61,0.8789 -6.76,2.2852 -9.39,4.1914 -2.65,1.9141 -4.7,4.4219 -6.18,7.5586 -1.46,3.125 -2.19,6.9023 -2.19,11.3086 0,4.2187 0.86,7.832 2.57,10.8672 1.7,3.0273 4.03,5.4804 6.97,7.3437 2.94,1.8555 6.36,3.2344 10.28,4.0938 3.92,0.8789 8.03,1.3281 12.34,1.3281 1.37,0 2.79,-0.0781 4.24,-0.2148 1.49,-0.1563 2.87,-0.3633 4.19,-0.6055 1.33,-0.2461 2.48,-0.4609 3.45,-0.6445 0.99,-0.2071 1.67,-0.3438 2.07,-0.4297 v 3.7968 c 0,2.2461 -0.25,4.4844 -0.74,6.6797 -0.5,2.2071 -1.37,4.1602 -2.64,5.8711 -1.28,1.7266 -3.02,3.0938 -5.21,4.1094 -2.21,1.0352 -5.07,1.5547 -8.6,1.5547 -4.51,0 -8.43,-0.3242 -11.82,-0.9492 -3.37,-0.6524 -5.9,-1.3164 -7.56,-1.9922 l -1.61,11.3012 c 1.76,0.789 4.68,1.543 8.8,2.285 4.11,0.73 8.58,1.101 13.36,1.101" /><path
         id="path44"
         style="fill:#85888b;fill-opacity:1;fill-rule:nonzero;stroke:none"
         d="m 1913.65,25.8555 c -6.17,0 -11.57,0.9648 -16.22,2.9179 -4.65,1.9532 -8.58,4.7188 -11.74,8.2227 -3.2,3.5273 -5.56,7.7148 -7.13,12.5703 -1.58,4.8438 -2.37,10.2031 -2.37,16.0742 0,5.8789 0.87,11.2305 2.58,16.1328 1.71,4.8907 4.14,9.1289 7.27,12.7032 3.14,3.5664 6.97,6.3674 11.53,8.3714 4.55,2 9.62,3.015 15.2,3.015 3.42,0 6.84,-0.3 10.28,-0.886 3.42,-0.586 6.7,-1.516 9.83,-2.793 l -3.07,-11.5942 c -2.06,0.9766 -4.44,1.7579 -7.13,2.3438 -2.7,0.5859 -5.56,0.8789 -8.6,0.8789 -7.63,0 -13.48,-2.3906 -17.54,-7.1953 -4.07,-4.7852 -6.09,-11.7891 -6.09,-20.9766 0,-4.1133 0.47,-7.8906 1.39,-11.3086 0.94,-3.4297 2.4,-6.3672 4.4,-8.8007 2.02,-2.4493 4.57,-4.3438 7.72,-5.6719 3.12,-1.3086 6.94,-1.9649 11.45,-1.9649 3.63,0 6.9,0.3321 9.85,1.0157 2.94,0.6953 5.23,1.4179 6.89,2.1992 l 1.91,-11.4375 c -0.79,-0.4961 -1.91,-0.9571 -3.37,-1.4063 -1.48,-0.4492 -3.15,-0.8281 -4.99,-1.1718 -1.87,-0.3516 -3.85,-0.6446 -5.96,-0.8868 -2.09,-0.2343 -4.12,-0.3515 -6.09,-0.3515" /><path
         id="path46"
         style="fill:#85888b;fill-opacity:1;fill-rule:nonzero;stroke:none"
         d="m 1963.49,103.961 h 28.92 V 92.5039 h -28.92 V 57.2695 c 0,-3.8164 0.29,-6.9726 0.88,-9.4804 0.58,-2.4922 1.45,-4.4453 2.64,-5.8594 1.18,-1.418 2.63,-2.4219 4.41,-3.0195 1.75,-0.586 3.82,-0.8789 6.15,-0.8789 4.11,0 7.42,0.4609 9.92,1.3984 2.49,0.9258 4.23,1.5898 5.22,1.9922 l 2.63,-11.3203 c -1.37,-0.6836 -3.76,-1.543 -7.19,-2.5782 -3.43,-1.0234 -7.35,-1.5312 -11.74,-1.5312 -5.2,0 -9.47,0.6641 -12.84,1.9805 -3.39,1.3281 -6.11,3.3007 -8.17,5.9492 -2.05,2.6445 -3.49,5.8984 -4.32,9.7539 -0.83,3.8672 -1.25,8.3515 -1.25,13.4492 v 68.125 l 13.66,2.344 v -23.633" /><path
         id="path48"
         style="fill:#85888b;fill-opacity:1;fill-rule:nonzero;stroke:none"
         d="m 2051.13,27.6016 h -13.67 v 76.3594 h 13.67 z m -6.91,90.1484 c -2.44,0 -4.52,0.82 -6.25,2.422 -1.71,1.609 -2.57,3.797 -2.57,6.543 0,2.742 0.86,4.91 2.57,6.523 1.73,1.621 3.81,2.43 6.25,2.43 2.45,0 4.53,-0.809 6.24,-2.43 1.71,-1.613 2.57,-3.781 2.57,-6.523 0,-2.746 -0.86,-4.934 -2.57,-6.543 -1.71,-1.602 -3.79,-2.422 -6.24,-2.422" /><path
         id="path50"
         style="fill:#85888b;fill-opacity:1;fill-rule:nonzero;stroke:none"
         d="m 2089.31,37.4453 c 5.57,0 9.72,0.7344 12.4,2.1992 2.7,1.4649 4.03,3.8164 4.03,7.0508 0,3.3281 -1.31,5.9766 -3.95,7.9297 -2.65,1.9609 -7,4.1602 -13.07,6.6094 -2.94,1.164 -5.76,2.3633 -8.45,3.6054 -2.68,1.211 -5,2.6563 -6.98,4.3243 -1.95,1.6601 -3.5,3.664 -4.69,5.9961 -1.18,2.3632 -1.76,5.2461 -1.76,8.6718 0,6.7578 2.5,12.1211 7.49,16.0743 5,3.9767 11.79,5.9567 20.41,5.9567 2.16,0 4.32,-0.136 6.46,-0.371 2.15,-0.242 4.16,-0.535 6.03,-0.887 1.84,-0.343 3.49,-0.714 4.91,-1.093 1.42,-0.403 2.52,-0.742 3.31,-1.035 l -2.5,-11.7504 c -1.47,0.7929 -3.77,1.5937 -6.91,2.4414 -3.13,0.8125 -6.9,1.2422 -11.3,1.2422 -3.82,0 -7.14,-0.7735 -9.99,-2.2774 -2.83,-1.5234 -4.25,-3.8945 -4.25,-7.1289 0,-1.6601 0.3,-3.125 0.96,-4.4023 0.62,-1.2813 1.61,-2.4219 2.94,-3.4493 1.31,-1.0351 2.95,-1.9921 4.91,-2.8593 1.95,-0.8789 4.31,-1.8164 7.05,-2.7735 3.61,-1.3789 6.85,-2.7265 9.68,-4.0547 2.85,-1.3085 5.27,-2.8593 7.27,-4.6171 2.01,-1.7579 3.56,-3.8985 4.63,-6.3868 1.09,-2.5 1.62,-5.5586 1.62,-9.1796 0,-7.0508 -2.61,-12.375 -7.85,-16.0079 -5.25,-3.6211 -12.7,-5.4179 -22.4,-5.4179 -6.76,0 -12.04,0.5468 -15.86,1.6679 -3.82,1.1329 -6.43,1.9922 -7.77,2.5782 l 2.49,11.75 c 1.55,-0.586 4.05,-1.4649 7.48,-2.6485 3.43,-1.1718 7.98,-1.7578 13.66,-1.7578" /><path
         id="path52"
         style="fill:#85888b;fill-opacity:1;fill-rule:nonzero;stroke:none"
         d="m 2207.46,91.8984 c -1.36,0.4024 -3.21,0.7735 -5.5,1.1133 -2.3,0.3321 -5.4,0.5078 -9.33,0.5078 -7.33,0 -13,-2.3906 -16.95,-7.1953 -3.98,-4.7969 -5.95,-11.164 -5.95,-19.0742 0,-4.4023 0.56,-8.1719 1.68,-11.2969 1.12,-3.1445 2.65,-5.7343 4.56,-7.7929 1.9,-2.0508 4.11,-3.5743 6.6,-4.543 2.5,-0.9844 5.07,-1.4727 7.72,-1.4727 3.62,0 6.94,0.5157 9.98,1.5313 3.02,1.0351 5.43,2.2383 7.19,3.6055 z m 0.15,-56.6601 c -1.17,-0.7813 -3.45,-1.7852 -6.83,-3.0156 -3.39,-1.211 -7.32,-1.8282 -11.82,-1.8282 -4.6,0 -8.93,0.7344 -12.99,2.1993 -4.06,1.4843 -7.63,3.7382 -10.66,6.8359 -3.03,3.0859 -5.42,6.9336 -7.18,11.5117 -1.76,4.6094 -2.66,10.0899 -2.66,16.4649 0,5.5585 0.83,10.664 2.51,15.3242 1.67,4.6484 4.08,8.6601 7.27,12.0312 3.17,3.3867 7.07,6.0233 11.68,7.9293 4.6,1.914 9.78,2.872 15.55,2.872 6.37,0 11.93,-0.469 16.66,-1.387 4.77,-0.938 8.75,-1.789 11.99,-2.578 V 33.4922 c 0,-11.7695 -3.04,-20.2852 -9.12,-25.56642 -6.07,-5.27344 -15.27,-7.92187375 -27.6,-7.92187375 -4.8,0 -9.32,0.38281275 -13.59,1.16406375 -4.25,0.78906 -7.96,1.72656 -11.08,2.79297 l 2.49,11.89456 c 2.74,-1.0742 6.1,-2.0313 10.06,-2.8633 3.97,-0.8281 8.11,-1.25 12.41,-1.25 8.12,0 13.97,1.6211 17.55,4.8555 3.57,3.2304 5.36,8.3593 5.36,15.4101 v 3.2305" /><path
         id="path54"
         style="fill:#85888b;fill-opacity:1;fill-rule:nonzero;stroke:none"
         d="m 2270.73,105.563 c 1.2,0 2.53,-0.071 4.06,-0.215 1.51,-0.149 3.01,-0.344 4.46,-0.586 1.48,-0.254 2.82,-0.5 4.05,-0.742 1.22,-0.247 2.13,-0.461 2.71,-0.665 l -2.34,-11.8862 c -1.09,0.3828 -2.86,0.8515 -5.37,1.3867 -2.5,0.539 -5.7,0.8203 -9.61,0.8203 -2.55,0 -5.06,-0.2813 -7.55,-0.8203 -2.51,-0.5352 -4.15,-0.8867 -4.94,-1.0938 V 27.6016 h -13.65 v 73.1254 c 3.23,1.164 7.24,2.277 12.04,3.293 4.81,1.035 10.18,1.543 16.14,1.543" /><path
         id="path56"
         style="fill:#85888b;fill-opacity:1;fill-rule:nonzero;stroke:none"
         d="m 2343.29,73.1211 c 0.11,6.1523 -1.44,11.2187 -4.62,15.1953 -3.18,3.9531 -7.55,5.9375 -13.14,5.9375 -3.13,0 -5.9,-0.6172 -8.3,-1.8281 -2.38,-1.2305 -4.42,-2.8203 -6.09,-4.7735 -1.67,-1.9531 -2.96,-4.2187 -3.89,-6.7578 -0.94,-2.539 -1.53,-5.1484 -1.83,-7.7734 z m -52.42,-7.4805 c 0,6.7383 0.99,12.6367 2.94,17.6836 1.95,5.0391 4.56,9.2188 7.79,12.5508 3.22,3.3281 6.95,5.82 11.17,7.48 4.2,1.661 8.51,2.508 12.92,2.508 10.26,0 18.14,-3.211 23.63,-9.6169 5.48,-6.4258 8.22,-16.1836 8.22,-29.2891 0,-0.5859 0,-1.3359 0,-2.2734 0,-0.9297 -0.05,-1.7891 -0.15,-2.5703 h -52.26 c 0.59,-7.9297 2.88,-13.9531 6.89,-18.0664 4.01,-4.1094 10.28,-6.1524 18.8,-6.1524 4.79,0 8.83,0.4102 12.12,1.2422 3.26,0.8281 5.74,1.6289 7.4,2.4219 l 1.92,-11.457 c -1.66,-0.8789 -4.57,-1.8164 -8.73,-2.793 -4.17,-0.9766 -8.89,-1.4531 -14.18,-1.4531 -6.65,0 -12.41,0.9961 -17.25,2.9961 -4.85,2.0039 -8.84,4.7773 -11.98,8.3007 -3.13,3.5274 -5.45,7.7149 -6.97,12.5508 -1.51,4.8438 -2.28,10.1563 -2.28,15.9375" /><path
         id="path58"
         style="fill:#85888b;fill-opacity:1;fill-rule:nonzero;stroke:none"
         d="m 2399.98,37.4453 c 3.23,0 6.09,0.0781 8.6,0.2149 2.49,0.1562 4.57,0.4101 6.23,0.8125 v 22.7617 c -0.98,0.4883 -2.57,0.9101 -4.77,1.2422 -2.21,0.3398 -4.86,0.5273 -8.01,0.5273 -2.05,0 -4.23,-0.1562 -6.53,-0.4492 -2.3,-0.293 -4.39,-0.9102 -6.31,-1.8281 -1.9,-0.9453 -3.5,-2.2071 -4.77,-3.8164 -1.28,-1.6211 -1.91,-3.7422 -1.91,-6.3985 0,-4.8906 1.55,-8.289 4.7,-10.2031 3.12,-1.9063 7.38,-2.8633 12.77,-2.8633 z m -1.18,68.4177 c 5.48,0 10.12,-0.722 13.89,-2.136 3.76,-1.418 6.78,-3.418 9.1,-6.0161 2.29,-2.5898 3.93,-5.6836 4.91,-9.2578 0.99,-3.5742 1.48,-7.5117 1.48,-11.8086 V 28.9297 c -1.18,-0.2031 -2.83,-0.457 -4.94,-0.8203 -2.09,-0.3321 -4.47,-0.6524 -7.1,-0.9453 -2.65,-0.293 -5.51,-0.5586 -8.6,-0.8008 -3.07,-0.2539 -6.14,-0.3711 -9.17,-0.3711 -4.31,0 -8.29,0.4492 -11.9,1.3164 -3.63,0.8789 -6.76,2.2852 -9.4,4.1914 -2.64,1.9141 -4.69,4.4219 -6.17,7.5586 -1.46,3.125 -2.2,6.9023 -2.2,11.3086 0,4.2187 0.86,7.832 2.57,10.8672 1.71,3.0273 4.04,5.4804 6.97,7.3437 2.94,1.8555 6.36,3.2344 10.29,4.0938 3.91,0.8789 8.03,1.3281 12.33,1.3281 1.37,0 2.78,-0.0781 4.25,-0.2148 1.48,-0.1563 2.86,-0.3633 4.19,-0.6055 1.33,-0.2461 2.48,-0.4609 3.45,-0.6445 0.98,-0.2071 1.67,-0.3438 2.06,-0.4297 v 3.7968 c 0,2.2461 -0.25,4.4844 -0.74,6.6797 -0.49,2.2071 -1.36,4.1602 -2.63,5.8711 -1.28,1.7266 -3.02,3.0938 -5.22,4.1094 -2.2,1.0352 -5.07,1.5547 -8.59,1.5547 -4.51,0 -8.44,-0.3242 -11.83,-0.9492 -3.37,-0.6524 -5.9,-1.3164 -7.56,-1.9922 l -1.61,11.3012 c 1.77,0.789 4.69,1.543 8.8,2.285 4.11,0.73 8.59,1.101 13.37,1.101" /><path
         id="path60"
         style="fill:#85888b;fill-opacity:1;fill-rule:nonzero;stroke:none"
         d="m 2460.48,103.961 h 28.93 V 92.5039 h -28.93 V 57.2695 c 0,-3.8164 0.29,-6.9726 0.88,-9.4804 0.58,-2.4922 1.45,-4.4453 2.65,-5.8594 1.17,-1.418 2.62,-2.4219 4.4,-3.0195 1.75,-0.586 3.82,-0.8789 6.15,-0.8789 4.11,0 7.42,0.4609 9.92,1.3984 2.49,0.9258 4.23,1.5898 5.22,1.9922 l 2.64,-11.3203 c -1.38,-0.6836 -3.76,-1.543 -7.2,-2.5782 -3.43,-1.0234 -7.34,-1.5312 -11.75,-1.5312 -5.18,0 -9.46,0.6641 -12.83,1.9805 -3.39,1.3281 -6.1,3.3007 -8.17,5.9492 -2.05,2.6445 -3.49,5.8984 -4.32,9.7539 -0.83,3.8672 -1.25,8.3515 -1.25,13.4492 v 68.125 l 13.66,2.344 v -23.633" /><path
         id="path62"
         style="fill:#85888b;fill-opacity:1;fill-rule:nonzero;stroke:none"
         d="m 2550.33,73.1211 c 0.11,6.1523 -1.45,11.2187 -4.61,15.1953 -3.2,3.9531 -7.56,5.9375 -13.16,5.9375 -3.12,0 -5.9,-0.6172 -8.29,-1.8281 -2.39,-1.2305 -4.42,-2.8203 -6.08,-4.7735 -1.68,-1.9531 -2.98,-4.2187 -3.9,-6.7578 -0.94,-2.539 -1.54,-5.1484 -1.84,-7.7734 z m -52.43,-7.4805 c 0,6.7383 0.99,12.6367 2.95,17.6836 1.96,5.0391 4.55,9.2188 7.79,12.5508 3.22,3.3281 6.94,5.82 11.16,7.48 4.21,1.661 8.51,2.508 12.92,2.508 10.27,0 18.15,-3.211 23.63,-9.6169 5.48,-6.4258 8.22,-16.1836 8.22,-29.2891 0,-0.5859 0,-1.3359 0,-2.2734 0,-0.9297 -0.05,-1.7891 -0.13,-2.5703 h -52.28 c 0.59,-7.9297 2.88,-13.9531 6.9,-18.0664 4.01,-4.1094 10.27,-6.1524 18.8,-6.1524 4.79,0 8.82,0.4102 12.11,1.2422 3.27,0.8281 5.75,1.6289 7.42,2.4219 l 1.9,-11.457 c -1.66,-0.8789 -4.57,-1.8164 -8.73,-2.793 -4.17,-0.9766 -8.88,-1.4531 -14.18,-1.4531 -6.65,0 -12.4,0.9961 -17.24,2.9961 -4.85,2.0039 -8.83,4.7773 -11.98,8.3007 -3.12,3.5274 -5.45,7.7149 -6.97,12.5508 -1.52,4.8438 -2.29,10.1563 -2.29,15.9375" /><path
         id="path64"
         style="fill:#85888b;fill-opacity:1;fill-rule:nonzero;stroke:none"
         d="m 2609.36,105.563 c 1.19,0 2.53,-0.071 4.05,-0.215 1.51,-0.149 3,-0.344 4.46,-0.586 1.49,-0.254 2.83,-0.5 4.06,-0.742 1.21,-0.247 2.12,-0.461 2.7,-0.665 l -2.33,-11.8862 c -1.1,0.3828 -2.87,0.8515 -5.38,1.3867 -2.49,0.539 -5.7,0.8203 -9.6,0.8203 -2.56,0 -5.07,-0.2813 -7.55,-0.8203 -2.51,-0.5352 -4.14,-0.8867 -4.92,-1.0938 V 27.6016 h -13.67 v 73.1254 c 3.24,1.164 7.24,2.277 12.05,3.293 4.8,1.035 10.16,1.543 16.13,1.543" /><path
         id="path66"
         style="fill:#5296d7;fill-opacity:1;fill-rule:nonzero;stroke:none"
         d="m 682.039,301.855 v 0.575 c 0,57.457 43.301,104.511 105.375,104.511 38.106,0 60.914,-12.703 79.68,-31.179 l -28.293,-32.617 c -15.59,14.14 -31.469,22.8 -51.68,22.8 -34.066,0 -58.601,-28.293 -58.601,-62.937 v -0.578 c 0,-34.653 23.964,-63.52 58.601,-63.52 23.102,0 37.246,9.25 53.121,23.684 L 868.539,234 c -20.793,-22.227 -43.883,-36.086 -82.859,-36.086 -59.473,0 -103.641,45.91 -103.641,103.941" /><path
         id="path68"
         style="fill:#5296d7;fill-opacity:1;fill-rule:nonzero;stroke:none"
         d="M 934.086,363.344 V 241.508 h 34.355 c 36.379,0 60.919,24.543 60.919,60.347 v 0.575 c 0,35.808 -24.54,60.914 -60.919,60.914 z m -44.461,40.129 h 78.816 c 63.509,0 107.399,-43.586 107.399,-100.465 v -0.578 c 0,-56.879 -43.89,-101.047 -107.399,-101.047 h -78.816 v 202.09" /><path
         id="path70"
         style="fill:#5296d7;fill-opacity:1;fill-rule:nonzero;stroke:none"
         d="m 1090.87,301.855 v 0.575 c 0,57.457 43.3,104.511 105.37,104.511 38.11,0 60.92,-12.703 79.68,-31.179 l -28.29,-32.617 c -15.59,14.14 -31.47,22.8 -51.68,22.8 -34.06,0 -58.6,-28.293 -58.6,-62.937 v -0.578 c 0,-34.653 23.96,-63.52 58.6,-63.52 23.1,0 37.25,9.25 53.13,23.684 L 1277.37,234 c -20.79,-22.227 -43.89,-36.086 -82.86,-36.086 -59.47,0 -103.64,45.91 -103.64,103.941" /><path
         id="path72"
         style="fill:#5296d7;fill-opacity:1;fill-rule:nonzero;stroke:none"
         d="m 249.145,384.961 c -20.305,0 -36.766,-16.461 -36.766,-36.77 0,-20.3 16.461,-36.761 36.766,-36.761 20.3,0 36.765,16.461 36.765,36.761 0,20.309 -16.465,36.77 -36.765,36.77" /><path
         id="path74"
         style="fill:#3c346a;fill-opacity:1;fill-rule:nonzero;stroke:none"
         d="M 1328.2,201.383 V 401.48 h 120.69 v -23.972 h -92.68 v -60.34 h 62.94 v -23.684 h -62.94 v -92.101 h -28.01" /><path
         id="path76"
         style="fill:#3c346a;fill-opacity:1;fill-rule:nonzero;stroke:none"
         d="m 1549.9,276.449 c 0,16.946 -3.8,30.367 -11.4,40.278 -7.61,9.914 -17.95,14.875 -31.04,14.875 -13.09,0 -23.43,-4.961 -31.04,-14.875 -7.6,-9.911 -11.4,-23.332 -11.4,-40.278 0,-16.941 3.8,-30.359 11.4,-40.273 7.61,-9.91 17.95,-14.871 31.04,-14.871 13.09,0 23.43,4.961 31.04,14.871 7.6,9.914 11.4,23.332 11.4,40.273 z m 28.01,0 c 0,-11.941 -1.73,-22.715 -5.19,-32.332 -3.48,-9.629 -8.33,-17.91 -14.58,-24.836 -6.26,-6.933 -13.72,-12.265 -22.38,-16.015 -8.67,-3.758 -18.1,-5.633 -28.3,-5.633 -10.2,0 -19.64,1.875 -28.29,5.633 -8.67,3.75 -16.13,9.082 -22.38,16.015 -6.26,6.926 -11.11,15.207 -14.58,24.836 -3.46,9.617 -5.2,20.391 -5.2,32.332 0,11.739 1.74,22.481 5.2,32.199 3.47,9.719 8.32,18.047 14.58,24.969 6.25,6.938 13.71,12.278 22.38,16.035 8.65,3.75 18.09,5.629 28.29,5.629 10.2,0 19.63,-1.879 28.3,-5.629 8.66,-3.757 16.12,-9.097 22.38,-16.035 6.25,-6.922 11.1,-15.25 14.58,-24.969 3.46,-9.718 5.19,-20.46 5.19,-32.199" /><path
         id="path78"
         style="fill:#3c346a;fill-opacity:1;fill-rule:nonzero;stroke:none"
         d="m 1719.09,205.719 c -6.16,-1.543 -14.29,-3.176 -24.39,-4.914 -10.12,-1.727 -21.8,-2.598 -35.09,-2.598 -11.55,0 -21.26,1.68 -29.16,5.059 -7.9,3.359 -14.25,8.125 -19.05,14.289 -4.82,6.16 -8.28,13.418 -10.39,21.797 -2.12,8.378 -3.18,17.664 -3.18,27.859 v 84.312 h 26.85 v -78.539 c 0,-18.293 2.89,-31.379 8.66,-39.269 5.78,-7.891 15.49,-11.824 29.16,-11.824 2.89,0 5.88,0.086 8.96,0.281 3.07,0.187 5.96,0.43 8.66,0.715 2.69,0.293 5.15,0.586 7.36,0.867 2.2,0.293 3.79,0.625 4.76,1.016 v 126.753 h 26.85 V 205.719" /><path
         id="path80"
         style="fill:#3c346a;fill-opacity:1;fill-rule:nonzero;stroke:none"
         d="m 1747.96,347.195 c 6.16,1.535 14.35,3.176 24.55,4.91 10.21,1.723 21.95,2.59 35.23,2.59 11.93,0 21.84,-1.683 29.73,-5.043 7.89,-3.375 14.2,-8.086 18.91,-14.156 4.73,-6.055 8.05,-13.324 9.97,-21.797 1.91,-8.469 2.88,-17.804 2.88,-28.008 v -84.308 h -26.84 v 78.535 c 0,9.23 -0.63,17.133 -1.88,23.68 -1.26,6.543 -3.33,11.836 -6.21,15.879 -2.89,4.043 -6.75,6.976 -11.55,8.804 -4.82,1.824 -10.78,2.75 -17.9,2.75 -2.88,0 -5.87,-0.109 -8.95,-0.293 -3.09,-0.203 -6.01,-0.429 -8.81,-0.722 -2.79,-0.293 -5.29,-0.625 -7.51,-1.012 -2.21,-0.387 -3.8,-0.68 -4.76,-0.871 v -126.75 h -26.86 v 145.812" /><path
         id="path82"
         style="fill:#3c346a;fill-opacity:1;fill-rule:nonzero;stroke:none"
         d="m 1993.53,319.77 c -3.27,2.687 -7.98,5.285 -14.14,7.793 -6.17,2.496 -12.9,3.746 -20.22,3.746 -7.69,0 -14.28,-1.399 -19.77,-4.184 -5.49,-2.789 -9.96,-6.637 -13.43,-11.543 -3.47,-4.906 -5.97,-10.738 -7.51,-17.477 -1.53,-6.738 -2.31,-13.96 -2.31,-21.656 0,-17.519 4.34,-31.035 12.99,-40.566 8.67,-9.531 20.22,-14.285 34.65,-14.285 7.32,0 13.43,0.332 18.34,1.004 4.9,0.675 8.7,1.398 11.4,2.168 z m 0,101.05 26.85,4.618 V 205.719 c -6.16,-1.739 -14.05,-3.469 -23.67,-5.207 -9.63,-1.727 -20.7,-2.598 -33.2,-2.598 -11.55,0 -21.95,1.836 -31.19,5.5 -9.23,3.641 -17.13,8.848 -23.68,15.574 -6.54,6.739 -11.59,14.973 -15.15,24.7 -3.57,9.707 -5.34,20.632 -5.34,32.761 0,11.555 1.48,22.141 4.47,31.77 2.99,9.617 7.36,17.898 13.14,24.828 5.78,6.933 12.85,12.312 21.22,16.168 8.37,3.851 17.94,5.773 28.73,5.773 8.67,0 16.31,-1.16 22.95,-3.465 6.65,-2.308 11.6,-4.527 14.87,-6.636 v 75.933" /><path
         id="path84"
         style="fill:#3c346a;fill-opacity:1;fill-rule:nonzero;stroke:none"
         d="m 2102.39,220.727 c 6.34,0 11.98,0.148 16.88,0.441 4.91,0.281 8.99,0.809 12.28,1.582 v 44.746 c -1.94,0.965 -5.06,1.777 -9.4,2.453 -4.33,0.68 -9.57,1.02 -15.72,1.02 -4.04,0 -8.34,-0.293 -12.86,-0.871 -4.52,-0.571 -8.67,-1.782 -12.42,-3.61 -3.76,-1.836 -6.87,-4.324 -9.38,-7.5 -2.5,-3.172 -3.75,-7.363 -3.75,-12.566 0,-9.621 3.08,-16.32 9.24,-20.07 6.15,-3.75 14.53,-5.625 25.13,-5.625 z m -2.33,134.554 c 10.78,0 19.88,-1.398 27.3,-4.187 7.4,-2.797 13.36,-6.739 17.9,-11.848 4.51,-5.098 7.74,-11.164 9.67,-18.183 1.92,-7.032 2.88,-14.778 2.88,-23.235 V 203.98 c -2.31,-0.382 -5.53,-0.917 -9.67,-1.582 -4.14,-0.683 -8.8,-1.308 -14.01,-1.886 -5.18,-0.567 -10.82,-1.102 -16.88,-1.582 -6.07,-0.477 -12.08,-0.723 -18.04,-0.723 -8.49,0 -16.28,0.871 -23.4,2.598 -7.13,1.738 -13.28,4.472 -18.47,8.234 -5.2,3.75 -9.24,8.699 -12.13,14.863 -2.88,6.161 -4.33,13.563 -4.33,22.235 0,8.273 1.68,15.402 5.05,21.359 3.37,5.965 7.95,10.781 13.71,14.438 5.78,3.656 12.51,6.363 20.22,8.086 7.69,1.734 15.78,2.597 24.24,2.597 2.7,0 5.5,-0.148 8.38,-0.426 2.89,-0.293 5.63,-0.683 8.24,-1.16 2.59,-0.48 4.85,-0.918 6.78,-1.297 1.93,-0.382 3.27,-0.675 4.05,-0.867 v 7.516 c 0,4.418 -0.49,8.808 -1.46,13.129 -0.96,4.336 -2.7,8.179 -5.19,11.551 -2.51,3.367 -5.92,6.062 -10.26,8.085 -4.32,2.02 -9.95,3.028 -16.88,3.028 -8.86,0 -16.61,-0.625 -23.25,-1.867 -6.64,-1.266 -11.59,-2.559 -14.87,-3.907 l -3.17,22.235 c 3.46,1.539 9.25,3.035 17.32,4.472 8.09,1.45 16.85,2.172 26.27,2.172" /><path
         id="path86"
         style="fill:#3c346a;fill-opacity:1;fill-rule:nonzero;stroke:none"
         d="m 2211.07,351.523 h 56.88 v -22.519 h -56.88 v -69.301 c 0,-7.512 0.58,-13.711 1.73,-18.625 1.16,-4.902 2.9,-8.758 5.2,-11.543 2.31,-2.793 5.2,-4.765 8.66,-5.918 3.47,-1.16 7.51,-1.726 12.12,-1.726 8.09,0 14.59,0.906 19.49,2.734 4.92,1.824 8.33,3.133 10.25,3.895 l 5.2,-22.227 c -2.69,-1.348 -7.41,-3.027 -14.15,-5.059 -6.74,-2.011 -14.43,-3.027 -23.09,-3.027 -10.21,0 -18.63,1.301 -25.27,3.898 -6.64,2.598 -11.98,6.493 -16.02,11.7 -4.05,5.183 -6.89,11.59 -8.51,19.199 -1.64,7.598 -2.46,16.406 -2.46,26.414 v 133.977 l 26.85,4.617 v -46.489" /><path
         id="path88"
         style="fill:#3c346a;fill-opacity:1;fill-rule:nonzero;stroke:none"
         d="m 2322.22,201.383 h -26.86 v 150.14 h 26.86 z m -13.57,177.285 c -4.81,0 -8.91,1.586 -12.27,4.766 -3.36,3.171 -5.06,7.453 -5.06,12.843 0,5.387 1.7,9.668 5.06,12.848 3.36,3.176 7.46,4.762 12.27,4.762 4.81,0 8.9,-1.586 12.27,-4.762 3.37,-3.18 5.06,-7.461 5.06,-12.848 0,-5.39 -1.69,-9.672 -5.06,-12.843 -3.37,-3.18 -7.46,-4.766 -12.27,-4.766" /><path
         id="path90"
         style="fill:#3c346a;fill-opacity:1;fill-rule:nonzero;stroke:none"
         d="m 2456.05,276.449 c 0,16.946 -3.81,30.367 -11.41,40.278 -7.61,9.914 -17.95,14.875 -31.03,14.875 -13.1,0 -23.44,-4.961 -31.05,-14.875 -7.6,-9.911 -11.41,-23.332 -11.41,-40.278 0,-16.941 3.81,-30.359 11.41,-40.273 7.61,-9.91 17.95,-14.871 31.05,-14.871 13.08,0 23.42,4.961 31.03,14.871 7.6,9.914 11.41,23.332 11.41,40.273 z m 28.01,0 c 0,-11.941 -1.73,-22.715 -5.21,-32.332 -3.47,-9.629 -8.32,-17.91 -14.58,-24.836 -6.25,-6.933 -13.71,-12.265 -22.37,-16.015 -8.67,-3.758 -18.1,-5.633 -28.29,-5.633 -10.21,0 -19.64,1.875 -28.3,5.633 -8.67,3.75 -16.13,9.082 -22.38,16.015 -6.26,6.926 -11.11,15.207 -14.59,24.836 -3.45,9.617 -5.18,20.391 -5.18,32.332 0,11.739 1.73,22.481 5.18,32.199 3.48,9.719 8.33,18.047 14.59,24.969 6.25,6.938 13.71,12.278 22.38,16.035 8.66,3.75 18.09,5.629 28.3,5.629 10.19,0 19.62,-1.879 28.29,-5.629 8.66,-3.757 16.12,-9.097 22.37,-16.035 6.26,-6.922 11.11,-15.25 14.58,-24.969 3.48,-9.718 5.21,-20.46 5.21,-32.199" /><path
         id="path92"
         style="fill:#3c346a;fill-opacity:1;fill-rule:nonzero;stroke:none"
         d="m 2501.95,347.195 c 6.16,1.535 14.34,3.176 24.55,4.91 10.2,1.723 21.94,2.59 35.22,2.59 11.93,0 21.85,-1.683 29.74,-5.043 7.89,-3.375 14.2,-8.086 18.9,-14.156 4.72,-6.055 8.05,-13.324 9.96,-21.797 1.93,-8.469 2.9,-17.804 2.9,-28.008 v -84.308 h -26.85 v 78.535 c 0,9.23 -0.63,17.133 -1.89,23.68 -1.25,6.543 -3.32,11.836 -6.2,15.879 -2.89,4.043 -6.74,6.976 -11.55,8.804 -4.81,1.824 -10.78,2.75 -17.9,2.75 -2.88,0 -5.87,-0.109 -8.95,-0.293 -3.08,-0.203 -6.02,-0.429 -8.8,-0.722 -2.8,-0.293 -5.31,-0.625 -7.51,-1.012 -2.22,-0.387 -3.81,-0.68 -4.77,-0.871 v -126.75 h -26.85 v 145.812" /><path
         id="path94"
         style="fill:#3c346a;fill-opacity:1;fill-rule:nonzero;stroke:none"
         d="m 343.109,384.969 c -20.304,0 -36.765,-16.457 -36.765,-36.762 0,-20.301 16.461,-36.762 36.765,-36.762 20.301,0 36.762,16.461 36.762,36.762 0,20.305 -16.461,36.762 -36.762,36.762" /><path
         id="path96"
         style="fill:#46b6be;fill-opacity:1;fill-rule:nonzero;stroke:none"
         d="m 343.121,291.18 c -20.305,0 -36.766,-16.457 -36.766,-36.762 0,-20.301 16.461,-36.766 36.766,-36.766 20.305,0 36.766,16.465 36.766,36.766 0,20.305 -16.461,36.762 -36.766,36.762" /><path
         id="path98"
         style="fill:#bbbcbd;fill-opacity:1;fill-rule:nonzero;stroke:none"
         d="m 10.6367,356.582 c -5.86326,0 -10.63279375,-4.769 -10.63279375,-10.637 0,-5.863 4.76953375,-10.632 10.63279375,-10.632 5.8633,0 10.6367,4.769 10.6367,10.632 0,5.868 -4.7734,10.637 -10.6367,10.637" /><path
         id="path100"
         style="fill:#bbbcbd;fill-opacity:1;fill-rule:nonzero;stroke:none"
         d="m 70.0313,345.945 c 0,-9.265 7.539,-16.808 16.8125,-16.808 9.2656,0 16.8042,7.543 16.8042,16.808 0,9.27 -7.5386,16.813 -16.8042,16.813 -9.2735,0 -16.8125,-7.543 -16.8125,-16.813" /><path
         id="path102"
         style="fill:#bbbcbd;fill-opacity:1;fill-rule:nonzero;stroke:none"
         d="m 162.543,319.871 c 14.375,0 26.074,11.699 26.074,26.074 0,14.383 -11.699,26.075 -26.074,26.075 -14.383,0 -26.074,-11.692 -26.074,-26.075 0,-14.375 11.691,-26.074 26.074,-26.074" /><path
         id="path104"
         style="fill:#bbbcbd;fill-opacity:1;fill-rule:nonzero;stroke:none"
         d="m 249.289,291.152 c -20.309,0 -36.766,-16.461 -36.766,-36.761 0,-20.305 16.457,-36.77 36.766,-36.77 20.305,0 36.762,16.465 36.762,36.77 0,20.3 -16.457,36.761 -36.762,36.761" /><path
         id="path106"
         style="fill:#bbbcbd;fill-opacity:1;fill-rule:nonzero;stroke:none"
         d="m 429.699,372.02 c -14.379,0 -26.074,-11.692 -26.074,-26.075 0,-14.375 11.695,-26.074 26.074,-26.074 14.375,0 26.074,11.699 26.074,26.074 0,14.383 -11.699,26.075 -26.074,26.075" /><path
         id="path108"
         style="fill:#bbbcbd;fill-opacity:1;fill-rule:nonzero;stroke:none"
         d="m 506.156,329.137 c 9.266,0 16.809,7.543 16.809,16.808 0,9.27 -7.543,16.813 -16.809,16.813 -9.273,0 -16.812,-7.543 -16.812,-16.813 0,-9.265 7.539,-16.808 16.812,-16.808" /><path
         id="path110"
         style="fill:#bbbcbd;fill-opacity:1;fill-rule:nonzero;stroke:none"
         d="m 429.828,419.746 c 8.34,0 15.125,6.785 15.125,15.125 0,8.348 -6.785,15.133 -15.125,15.133 -8.348,0 -15.133,-6.785 -15.133,-15.133 0,-8.34 6.785,-15.125 15.133,-15.125" /><path
         id="path112"
         style="fill:#bbbcbd;fill-opacity:1;fill-rule:nonzero;stroke:none"
         d="m 429.828,152.574 c 8.34,0 15.125,6.797 15.125,15.137 0,8.34 -6.785,15.125 -15.125,15.125 -8.348,0 -15.133,-6.785 -15.133,-15.125 0,-8.34 6.785,-15.137 15.133,-15.137" /><path
         id="path114"
         style="fill:#bbbcbd;fill-opacity:1;fill-rule:nonzero;stroke:none"
         d="m 162.156,152.574 c 8.344,0 15.133,6.797 15.133,15.137 0,8.34 -6.789,15.125 -15.133,15.125 -8.34,0 -15.129,-6.785 -15.129,-15.125 0,-8.34 6.789,-15.137 15.129,-15.137" /><path
         id="path116"
         style="fill:#bbbcbd;fill-opacity:1;fill-rule:nonzero;stroke:none"
         d="m 162.156,419.52 c 8.344,0 15.133,6.789 15.133,15.128 0,8.344 -6.789,15.133 -15.133,15.133 -8.34,0 -15.129,-6.789 -15.129,-15.133 0,-8.339 6.789,-15.128 15.129,-15.128" /><path
         id="path118"
         style="fill:#bbbcbd;fill-opacity:1;fill-rule:nonzero;stroke:none"
         d="m 581.852,335.313 c 5.867,0 10.636,4.769 10.636,10.632 0,5.868 -4.769,10.637 -10.636,10.637 -5.864,0 -10.633,-4.769 -10.633,-10.637 0,-5.863 4.769,-10.632 10.633,-10.632" /><path
         id="path120"
         style="fill:#bbbcbd;fill-opacity:1;fill-rule:nonzero;stroke:none"
         d="m 10.6367,267.301 c -5.86326,0 -10.63279375,-4.766 -10.63279375,-10.637 0,-5.859 4.76953375,-10.633 10.63279375,-10.633 5.8633,0 10.6367,4.774 10.6367,10.633 0,5.871 -4.7734,10.637 -10.6367,10.637" /><path
         id="path122"
         style="fill:#bbbcbd;fill-opacity:1;fill-rule:nonzero;stroke:none"
         d="m 86.8438,273.477 c -9.2735,0 -16.8125,-7.543 -16.8125,-16.813 0,-9.266 7.539,-16.805 16.8125,-16.805 9.2656,0 16.8042,7.539 16.8042,16.805 0,9.27 -7.5386,16.813 -16.8042,16.813" /><path
         id="path124"
         style="fill:#bbbcbd;fill-opacity:1;fill-rule:nonzero;stroke:none"
         d="m 162.543,230.59 c 14.375,0 26.074,11.699 26.074,26.074 0,14.383 -11.699,26.074 -26.074,26.074 -14.383,0 -26.074,-11.691 -26.074,-26.074 0,-14.375 11.691,-26.074 26.074,-26.074" /><path
         id="path126"
         style="fill:#bbbcbd;fill-opacity:1;fill-rule:nonzero;stroke:none"
         d="m 429.699,282.738 c -14.379,0 -26.074,-11.691 -26.074,-26.074 0,-14.375 11.695,-26.074 26.074,-26.074 14.375,0 26.074,11.699 26.074,26.074 0,14.383 -11.699,26.074 -26.074,26.074" /><path
         id="path128"
         style="fill:#bbbcbd;fill-opacity:1;fill-rule:nonzero;stroke:none"
         d="m 522.965,256.664 c 0,9.27 -7.543,16.813 -16.809,16.813 -9.273,0 -16.812,-7.543 -16.812,-16.813 0,-9.266 7.539,-16.805 16.812,-16.805 9.266,0 16.809,7.539 16.809,16.805" /><path
         id="path130"
         style="fill:#bbbcbd;fill-opacity:1;fill-rule:nonzero;stroke:none"
         d="m 581.852,246.031 c 5.867,0 10.636,4.774 10.636,10.633 0,5.871 -4.769,10.637 -10.636,10.637 -5.864,0 -10.633,-4.766 -10.633,-10.637 0,-5.859 4.769,-10.633 10.633,-10.633" /><path
         id="path132"
         style="fill:#bbbcbd;fill-opacity:1;fill-rule:nonzero;stroke:none"
         d="m 241.102,15.8242 c 0,-5.85936 4.769,-10.63279 10.632,-10.63279 5.868,0 10.637,4.77343 10.637,10.63279 0,5.8711 -4.769,10.6446 -10.637,10.6446 -5.863,0 -10.632,-4.7735 -10.632,-10.6446" /><path
         id="path134"
         style="fill:#bbbcbd;fill-opacity:1;fill-rule:nonzero;stroke:none"
         d="m 251.734,75.2305 c 9.27,0 16.813,7.539 16.813,16.8047 0,9.2698 -7.543,16.8088 -16.813,16.8088 -9.265,0 -16.808,-7.539 -16.808,-16.8088 0,-9.2657 7.543,-16.8047 16.808,-16.8047" /><path
         id="path136"
         style="fill:#bbbcbd;fill-opacity:1;fill-rule:nonzero;stroke:none"
         d="m 277.809,167.738 c 0,14.375 -11.7,26.075 -26.075,26.075 -14.375,0 -26.074,-11.7 -26.074,-26.075 0,-14.383 11.699,-26.074 26.074,-26.074 14.375,0 26.075,11.691 26.075,26.074" /><path
         id="path138"
         style="fill:#bbbcbd;fill-opacity:1;fill-rule:nonzero;stroke:none"
         d="m 225.66,434.891 c 0,-14.375 11.699,-26.075 26.074,-26.075 14.375,0 26.075,11.7 26.075,26.075 0,14.382 -11.7,26.078 -26.075,26.078 -14.375,0 -26.074,-11.696 -26.074,-26.078" /><path
         id="path140"
         style="fill:#bbbcbd;fill-opacity:1;fill-rule:nonzero;stroke:none"
         d="m 268.547,511.348 c 0,9.273 -7.543,16.812 -16.813,16.812 -9.265,0 -16.808,-7.539 -16.808,-16.812 0,-9.27 7.543,-16.813 16.808,-16.813 9.27,0 16.813,7.543 16.813,16.813" /><path
         id="path142"
         style="fill:#bbbcbd;fill-opacity:1;fill-rule:nonzero;stroke:none"
         d="m 262.371,587.047 c 0,5.863 -4.769,10.637 -10.637,10.637 -5.863,0 -10.632,-4.774 -10.632,-10.637 0,-5.867 4.769,-10.637 10.632,-10.637 5.868,0 10.637,4.77 10.637,10.637" /><path
         id="path144"
         style="fill:#bbbcbd;fill-opacity:1;fill-rule:nonzero;stroke:none"
         d="m 330.383,15.8242 c 0,-5.85936 4.769,-10.63279 10.637,-10.63279 5.863,0 10.632,4.77343 10.632,10.63279 0,5.8711 -4.769,10.6446 -10.632,10.6446 -5.868,0 -10.637,-4.7735 -10.637,-10.6446" /><path
         id="path146"
         style="fill:#bbbcbd;fill-opacity:1;fill-rule:nonzero;stroke:none"
         d="m 324.207,92.0352 c 0,-9.2657 7.539,-16.8047 16.813,-16.8047 9.265,0 16.808,7.539 16.808,16.8047 0,9.2698 -7.543,16.8088 -16.808,16.8088 -9.274,0 -16.813,-7.539 -16.813,-16.8088" /><path
         id="path148"
         style="fill:#bbbcbd;fill-opacity:1;fill-rule:nonzero;stroke:none"
         d="m 367.094,167.738 c 0,14.375 -11.699,26.075 -26.074,26.075 -14.383,0 -26.075,-11.7 -26.075,-26.075 0,-14.383 11.692,-26.074 26.075,-26.074 14.375,0 26.074,11.691 26.074,26.074" /><path
         id="path150"
         style="fill:#bbbcbd;fill-opacity:1;fill-rule:nonzero;stroke:none"
         d="m 314.945,434.891 c 0,-14.375 11.692,-26.075 26.075,-26.075 14.375,0 26.074,11.7 26.074,26.075 0,14.382 -11.699,26.078 -26.074,26.078 -14.383,0 -26.075,-11.696 -26.075,-26.078" /><path
         id="path152"
         style="fill:#bbbcbd;fill-opacity:1;fill-rule:nonzero;stroke:none"
         d="m 341.02,528.16 c -9.274,0 -16.813,-7.539 -16.813,-16.812 0,-9.27 7.539,-16.813 16.813,-16.813 9.265,0 16.808,7.543 16.808,16.813 0,9.273 -7.543,16.812 -16.808,16.812" /><path
         id="path154"
         style="fill:#bbbcbd;fill-opacity:1;fill-rule:nonzero;stroke:none"
         d="m 351.652,587.047 c 0,5.863 -4.769,10.637 -10.632,10.637 -5.868,0 -10.637,-4.774 -10.637,-10.637 0,-5.867 4.769,-10.637 10.637,-10.637 5.863,0 10.632,4.77 10.632,10.637" /></g></g></svg>